HIERARCHY
ROOT Hips
{
    OFFSET   0.000000   0.000000   0.000000
    CHANNELS 6 Xposition Yposition Zposition Zrotation Xrotation Yrotation
    JOINT Chest
    {
        OFFSET   0.000000   8.007240   0.000000
        CHANNELS 3 Zrotation Xrotation Yrotation
        JOINT Chest2
        {
            OFFSET   0.000000  22.077100   0.000000
            CHANNELS 3 Zrotation Xrotation Yrotation
            JOINT Neck
            {
                OFFSET   0.000000  23.254800   0.000000
                CHANNELS 3 Zrotation Xrotation Yrotation
                JOINT Head
                {
                    OFFSET   0.000000  14.370000   1.956600
                    CHANNELS 3 Zrotation Xrotation Yrotation
                    End Site
                    {
                        OFFSET   0.000000  19.566000   0.000000
                    }
                }
            }
            JOINT LeftCollar
            {
                OFFSET   3.911900  19.017000  -0.467064
                CHANNELS 3 Zrotation Xrotation Yrotation
                JOINT LeftShoulder
                {
                    OFFSET  10.383700   0.000000   0.000000
                    CHANNELS 3 Zrotation Xrotation Yrotation
                    JOINT LeftElbow
                    {
                        OFFSET  26.662100   0.001476   0.000517
                        CHANNELS 3 Zrotation Xrotation Yrotation
                        JOINT LeftWrist
                        {
                            OFFSET  28.869000  -0.000025  -0.000106
                            CHANNELS 3 Zrotation Xrotation Yrotation
                            JOINT LeftFinger0
                            {
                                OFFSET   2.044660  -2.323460   3.252850
                                CHANNELS 3 Zrotation Xrotation Yrotation
                                JOINT LeftFinger01
                                {
                                    OFFSET   3.088130   0.000000   0.000000
                                    CHANNELS 3 Zrotation Xrotation Yrotation
                                    JOINT LeftFinger02
                                    {
                                        OFFSET   2.639460   0.000000   0.000000
                                        CHANNELS 3 Zrotation Xrotation Yrotation
                                        End Site
                                        {
                                            OFFSET   2.582190   0.000000   0.000000
                                        }
                                    }
                                }
                            }
                            JOINT LeftFinger1
                            {
                                OFFSET   8.364480   0.000000   3.252850
                                CHANNELS 3 Zrotation Xrotation Yrotation
                                JOINT LeftFinger11
                                {
                                    OFFSET   4.646930   0.000000   0.000000
                                    CHANNELS 3 Zrotation Xrotation Yrotation
                                    JOINT LeftFinger12
                                    {
                                        OFFSET   2.323460   0.000000   0.000000
                                        CHANNELS 3 Zrotation Xrotation Yrotation
                                        End Site
                                        {
                                            OFFSET   2.273050   0.000000   0.000000
                                        }
                                    }
                                }
                            }
                            JOINT LeftFinger2
                            {
                                OFFSET   8.364490   0.000015   1.078090
                                CHANNELS 3 Zrotation Xrotation Yrotation
                                JOINT LeftFinger21
                                {
                                    OFFSET   5.111620   0.000000   0.000000
                                    CHANNELS 3 Zrotation Xrotation Yrotation
                                    JOINT LeftFinger22
                                    {
                                        OFFSET   2.788160   0.000016   0.000000
                                        CHANNELS 3 Zrotation Xrotation Yrotation
                                        End Site
                                        {
                                            OFFSET   2.727660   0.000000   0.000000
                                        }
                                    }
                                }
                            }
                            JOINT LeftFinger3
                            {
                                OFFSET   7.899780   0.000017  -1.078090
                                CHANNELS 3 Zrotation Xrotation Yrotation
                                JOINT LeftFinger31
                                {
                                    OFFSET   4.646930   0.000000   0.000000
                                    CHANNELS 3 Zrotation Xrotation Yrotation
                                    JOINT LeftFinger32
                                    {
                                        OFFSET   2.323470   0.000000   0.000000
                                        CHANNELS 3 Zrotation Xrotation Yrotation
                                        End Site
                                        {
                                            OFFSET   2.273050   0.000000   0.000000
                                        }
                                    }
                                }
                            }
                            JOINT LeftFinger4
                            {
                                OFFSET   7.435090   0.000000  -3.252850
                                CHANNELS 3 Zrotation Xrotation Yrotation
                                JOINT LeftFinger41
                                {
                                    OFFSET   3.717550   0.000000   0.000000
                                    CHANNELS 3 Zrotation Xrotation Yrotation
                                    JOINT LeftFinger42
                                    {
                                        OFFSET   1.858770   0.000000   0.000000
                                        CHANNELS 3 Zrotation Xrotation Yrotation
                                        End Site
                                        {
                                            OFFSET   1.818440   0.000000   0.000000
                                        }
                                    }
                                }
                            }
                        }
                    }
                }
            }
            JOINT RightCollar
            {
                OFFSET  -3.911900  19.017000  -0.467063
                CHANNELS 3 Zrotation Xrotation Yrotation
                JOINT RightShoulder
                {
                    OFFSET -10.383700   0.000019   0.000000
                    CHANNELS 3 Zrotation Xrotation Yrotation
                    JOINT RightElbow
                    {
                        OFFSET -26.662100   0.001175   0.000102
                        CHANNELS 3 Zrotation Xrotation Yrotation
                        JOINT RightWrist
                        {
                            OFFSET -28.869000   0.000016  -0.000079
                            CHANNELS 3 Zrotation Xrotation Yrotation
                            JOINT RightFinger0
                            {
                                OFFSET  -2.044660  -2.323490   3.252850
                                CHANNELS 3 Zrotation Xrotation Yrotation
                                JOINT RightFinger01
                                {
                                    OFFSET  -3.088140   0.000000   0.000000
                                    CHANNELS 3 Zrotation Xrotation Yrotation
                                    JOINT RightFinger02
                                    {
                                        OFFSET  -2.639460   0.000000   0.000000
                                        CHANNELS 3 Zrotation Xrotation Yrotation
                                        End Site
                                        {
                                            OFFSET  -2.582190   0.000000   0.000000
                                        }
                                    }
                                }
                            }
                            JOINT RightFinger1
                            {
                                OFFSET  -8.364480   0.000000   3.252850
                                CHANNELS 3 Zrotation Xrotation Yrotation
                                JOINT RightFinger11
                                {
                                    OFFSET  -4.646930   0.000000   0.000000
                                    CHANNELS 3 Zrotation Xrotation Yrotation
                                    JOINT RightFinger12
                                    {
                                        OFFSET  -2.323470   0.000000   0.000000
                                        CHANNELS 3 Zrotation Xrotation Yrotation
                                        End Site
                                        {
                                            OFFSET  -2.273050   0.000000   0.000000
                                        }
                                    }
                                }
                            }
                            JOINT RightFinger2
                            {
                                OFFSET  -8.364480   0.000000   1.078090
                                CHANNELS 3 Zrotation Xrotation Yrotation
                                JOINT RightFinger21
                                {
                                    OFFSET  -5.111620   0.000000   0.000000
                                    CHANNELS 3 Zrotation Xrotation Yrotation
                                    JOINT RightFinger22
                                    {
                                        OFFSET  -2.788160   0.000000   0.000000
                                        CHANNELS 3 Zrotation Xrotation Yrotation
                                        End Site
                                        {
                                            OFFSET  -2.727660   0.000000   0.000000
                                        }
                                    }
                                }
                            }
                            JOINT RightFinger3
                            {
                                OFFSET  -7.899780   0.000000  -1.078090
                                CHANNELS 3 Zrotation Xrotation Yrotation
                                JOINT RightFinger31
                                {
                                    OFFSET  -4.646930   0.000000   0.000000
                                    CHANNELS 3 Zrotation Xrotation Yrotation
                                    JOINT RightFinger32
                                    {
                                        OFFSET  -2.323470   0.000000   0.000000
                                        CHANNELS 3 Zrotation Xrotation Yrotation
                                        End Site
                                        {
                                            OFFSET  -2.273050   0.000000   0.000000
                                        }
                                    }
                                }
                            }
                            JOINT RightFinger4
                            {
                                OFFSET  -7.435090   0.000000  -3.252850
                                CHANNELS 3 Zrotation Xrotation Yrotation
                                JOINT RightFinger41
                                {
                                    OFFSET  -3.717550   0.000000   0.000000
                                    CHANNELS 3 Zrotation Xrotation Yrotation
                                    JOINT RightFinger42
                                    {
                                        OFFSET  -1.858770   0.000000   0.000000
                                        CHANNELS 3 Zrotation Xrotation Yrotation
                                        End Site
                                        {
                                            OFFSET  -1.818440   0.000000   0.000000
                                        }
                                    }
                                }
                            }
                        }
                    }
                }
            }
        }
    }
    JOINT LeftHip
    {
        OFFSET   9.783040   0.000000   0.000000
        CHANNELS 3 Zrotation Xrotation Yrotation
        JOINT LeftKnee
        {
            OFFSET   0.000032 -41.789100  -0.002222
            CHANNELS 3 Zrotation Xrotation Yrotation
            JOINT LeftAnkle
            {
                OFFSET   0.000087 -41.133200  -0.000135
                CHANNELS 3 Zrotation Xrotation Yrotation
                JOINT LeftToe
                {
                    OFFSET   0.000000  -6.358960  14.674500
                    CHANNELS 3 Zrotation Xrotation Yrotation
                    End Site
                    {
                        OFFSET   0.000000   0.000000   3.913200
                    }
                }
            }
        }
    }
    JOINT RightHip
    {
        OFFSET  -9.783040   0.000000   0.000000
        CHANNELS 3 Zrotation Xrotation Yrotation
        JOINT RightKnee
        {
            OFFSET   0.000047 -41.789100  -0.000896
            CHANNELS 3 Zrotation Xrotation Yrotation
            JOINT RightAnkle
            {
                OFFSET  -0.000117 -41.133300  -0.000248
                CHANNELS 3 Zrotation Xrotation Yrotation
                JOINT RightToe
                {
                    OFFSET   0.000000  -6.358970  14.674500
                    CHANNELS 3 Zrotation Xrotation Yrotation
                    End Site
                    {
                        OFFSET   0.000000   0.000000   3.913200
                    }
                }
            }
        }
    }
}
MOTION
Frames: 4
Frame Time:   0.016667
 -9.589220  88.849100  -9.464790  -0.775446 -11.804700   1.645740   1.200420   6.201110  -1.087110   2.542240  12.376700  -2.326110   2.906440   0.350975  -0.017859   4.776830   0.705241  -3.911010  -7.941820   3.602370  -3.094000 -70.594600  11.648400  -8.579160  -1.035300  -0.813581 -15.810400   5.565070  -7.128310   2.862880  41.244300  34.376800 -56.386800 -31.207900  -0.000775   0.001710 -10.604000   0.004970   0.000000 -36.299200   9.014550 -12.038600 -30.478500  -0.005986   0.003744 -21.335000  -0.005921  -0.006879 -28.409400  -3.699990   5.970820 -42.973600  -0.005819  -0.004485 -28.620400  -0.005057  -0.005854 -29.304200  -4.931700   8.718600 -44.521000  -0.000331  -0.004378 -29.651000   0.001270  -0.004578 -38.589700 -12.789200  15.506800 -60.507200   0.001859   0.005805 -40.297800  -0.002906   0.002602   2.540730  -5.188860   3.803110  28.808900 -27.534700  36.591800 -32.118700 -34.787300  70.617600  18.795900 -29.130300  26.466500 -39.076700  45.546500  82.089100  45.672500   0.002958  -0.003038  20.128600   0.007961  -0.000636  88.964800  14.997600   0.267927  95.904700  -0.002334  -0.002629  71.928500  -0.006803   0.007487  89.000000  -0.001679   0.001005  99.472800  -0.002990  -0.003786  74.604700  -0.003431  -0.009066  89.010300 -10.002700  -0.169518  89.980400   0.012093   0.008432  67.485300   0.008370   0.000484  88.932400 -19.995200  -0.366132 110.000000  -0.003436  -0.002037  80.000000  -0.003134   0.003496   6.517550  11.024600  -0.101177   3.582270  10.168600  11.760900 -10.166000  -7.024410  -1.900370  -0.000000   0.000000   0.000000   6.463870  14.748300  -2.764390   1.035390   0.652569 -16.540300  -3.989930  -5.151820  -0.457654  -0.000000   0.000000   0.000000
 -9.531490  88.856300  -9.466840  -0.732275 -11.755400   1.745870   1.175580   6.183420  -1.034970   2.485920  12.343100  -2.217690   2.859580   0.234399  -0.011774   4.699750   0.470841  -3.196970  -7.965430   3.554290  -3.100290 -70.594700  11.721600  -8.641420  -1.016270  -0.784803 -15.739600   5.579690  -7.113840   2.895320  41.255000  34.379200 -56.384500 -31.201400  -0.000777   0.001701 -10.600700   0.004972  -0.000000 -36.289500   9.013900 -12.039400 -30.470700  -0.005987   0.003740 -21.329500  -0.005918  -0.006876 -28.409500  -3.699990   5.970110 -42.956100  -0.005818  -0.003617 -28.608800  -0.005057  -0.005854 -29.300000  -4.931920   8.718500 -44.514700  -0.000333   0.000000 -29.646800   0.001269  -0.001576 -38.583400 -12.788900  15.507100 -60.497800   0.001856   0.005806 -40.291500  -0.002905   0.002603   2.543820  -5.183140   3.842240  28.319800 -27.285700  36.823800 -32.696800 -34.421200  69.541400  18.359500 -28.252200  25.805000 -39.767600  45.764600  82.992600  44.708800   0.003010  -0.003192  19.139200   0.008110  -0.000769  88.964800  14.997700   0.267925  94.280500  -0.006961  -0.007292  70.710400  -0.006887   0.007509  89.000000  -0.001660   0.001091  97.476800  -0.009555  -0.010673  73.107500  -0.009723  -0.009035  88.658400 -10.009500  -0.225770  89.116600   0.012418   0.015178  66.837400   0.013017   0.000549  88.932400 -19.995200  -0.366140 110.000000  -0.003364  -0.002084  80.000000  -0.003180   0.003419   6.466300  11.015600  -0.110315   3.577330  10.035900  11.751600 -10.130600  -6.934210  -1.938280  -0.000000   0.000000   0.000000   6.395620  14.738000  -2.740210   1.059190   0.586128 -16.603200  -3.970820  -5.129920  -0.497303  -0.000000   0.000000   0.000000
 -9.464430  88.864500  -9.468350  -0.691249 -11.704700   1.832390   1.148350   6.167880  -0.982015   2.424790  12.313700  -2.107440   2.821090   0.119732  -0.005972   4.636450   0.240011  -2.522510  -7.989110   3.506040  -3.104370 -70.592400  11.789900  -8.705610  -0.998933  -0.766837 -15.646900   5.592980  -7.096450   2.931010  41.250000  34.363500 -56.358000 -31.202000  -0.000775   0.001706 -10.601000   0.004975   0.000000 -36.277500   9.013210 -12.040100 -30.461000  -0.005989   0.003743 -21.322600  -0.005919  -0.006878 -28.409500  -3.699990   5.969140 -42.933300  -0.005817  -0.003618 -28.593600  -0.005057  -0.005858 -29.288200  -4.930550   8.718400 -44.496700  -0.000332   0.000000 -29.634900   0.001269  -0.001577 -38.564800 -12.784500  15.510700 -60.469700   0.001857   0.005805 -40.272700  -0.002904   0.002601   2.557790  -5.163380   3.884070  27.865400 -27.040300  37.036100 -33.232400 -33.996900  68.512000  17.879300 -27.219500  25.114400 -40.590900  45.958400  84.078400  43.649300   0.003058  -0.002964  18.058600   0.008241  -0.000900  88.964800  14.997600   0.267921  93.848100  -0.002940  -0.003507  70.386100  -0.003183   0.007536  89.000000  -0.001642   0.001175  97.045500  -0.002996  -0.003869  72.784000  -0.003390  -0.009021  88.030800 -10.014000  -0.329572  88.173000   0.013099   0.023364  66.129700   0.019603   0.000605  89.048900 -20.004000  -0.321697 110.000000  -0.003298  -0.002122  80.000000  -0.003221   0.003352   6.413480  11.008200  -0.114955   3.568130   9.899880  11.747000 -10.090700  -6.843140  -1.970670  -0.000000   0.000000   0.000000   6.318130  14.696900  -2.714340   1.081250   0.584056 -16.660800  -3.938280  -5.133890  -0.531095   0.000000   0.000000   0.000000
 -9.390480  88.873300  -9.470670  -0.653517 -11.656000   1.906270   1.120200   6.155850  -0.928131   2.361800  12.291300  -1.995340   2.788240   0.006288  -0.000390   4.582440   0.011641  -1.892280  -8.013920   3.458030  -3.109840 -70.581300  11.852200  -8.768180  -0.985182  -0.760214 -15.533500   5.604950  -7.075900   2.968590  41.221300  34.327200 -56.313800 -31.206600  -0.000771   0.001710 -10.603300   0.004977  -0.000000 -36.270200   9.012600 -12.040700 -30.455100  -0.005991   0.003746 -21.318500  -0.005921  -0.006880 -28.409600  -3.700000   5.968270 -42.919400  -0.005816  -0.003619 -28.584300  -0.005058  -0.005861 -29.273900  -4.928280   8.718310 -44.475000  -0.000332  -0.000000 -29.620400   0.001269  -0.001579 -38.540900 -12.777400  15.516400 -60.433300   0.001858   0.005804 -40.248500  -0.002904   0.002600   2.582030  -5.130260   3.925710  27.458600 -26.794100  37.224300 -33.733300 -33.485100  67.543300  17.402300 -26.023900  24.397100 -41.114500  46.062600  84.769900  42.639000   0.003106  -0.002736  17.045300   0.008355  -0.001036  88.964800  14.997600   0.267916  93.600900   0.002505   0.001728  70.200700   0.001899   0.007564  89.000000  -0.001623   0.001255  96.738500   0.005567   0.005386  72.553800   0.005188  -0.008978  87.119000 -10.016100  -0.483734  87.099600   0.014233   0.028543  65.324700   0.023926   0.000665  89.165400 -20.012800  -0.277249 110.000000  -0.003234  -0.002154  80.000000  -0.003261   0.003282   6.360090  11.004600  -0.116444   3.556280   9.761800  11.744600 -10.047300  -6.751320  -1.998190   0.000000   0.000000   0.000000   6.234860  14.647600  -2.687420   1.097690   0.583620 -16.715100  -3.897590  -5.141580  -0.556615  -0.000000   0.000000  -0.000000
